# xmcd
#
# Track frame offsets:
# 150
# 52607
# 100665
# 136520
# 152960
# 252842
#
# Disc length: 4095 seconds
#
# Revision: 0
# Processed by: cddbd v1.5.1PL0 Copyright (c) Steve Scherf et al.
# Submitted via: Audion 3.0.2 (http://www.panic.com/audion/)
#
DISCID=3b0ffd06
DTITLE=Daniel Menche - Incineration
DYEAR=1900
DGENRE=
TTITLE0=Untitled 1
TTITLE1=Untitled 2
TTITLE2=Untitled 3
TTITLE3=Untitled 4
TTITLE4=Untitled 5
TTITLE5=Untitled 6
EXTD=
EXTT0=
EXTT1=
EXTT2=
EXTT3=
EXTT4=
EXTT5=
PLAYORDER=
